<?xml version="1.0" encoding="UTF-8" standalone="no"?>
<!DOCTYPE svg PUBLIC "-//W3C//DTD SVG 1.1//EN"
 "http://www.w3.org/Graphics/SVG/1.1/DTD/svg11.dtd">
<!-- Generated by graphviz version 14.1.1 (20251213.1925)
 -->
<!-- Title: G Pages: 1 -->
<svg width="458pt" height="260pt"
 viewBox="0.00 0.00 458.00 260.00" xmlns="http://www.w3.org/2000/svg" xmlns:xlink="http://www.w3.org/1999/xlink">
<g id="graph0" class="graph" transform="scale(1 1) rotate(0) translate(4 256)">
<title>G</title><style>.edge>path:hover{stroke-width:8}</style>
<polygon fill="white" stroke="none" points="-4,4 -4,-256 453.97,-256 453.97,4 -4,4"/>
<!-- src_chat_system -->
<g id="node1" class="node">
<title>src_chat_system</title><style>.edge>path:hover{stroke-width:8}</style>
<polygon fill="blue" stroke="black" points="259.41,-180 187.16,-180 187.16,-144 259.41,-144 259.41,-180"/>
<text xml:space="preserve" text-anchor="middle" x="223.29" y="-164.5" font-family="Helvetica,sans-Serif" font-size="10.00" fill="white">src.</text>
<text xml:space="preserve" text-anchor="middle" x="223.29" y="-152.5" font-family="Helvetica,sans-Serif" font-size="10.00" fill="white">chat_system</text>
</g>
<!-- src_interfaces -->
<g id="node5" class="node">
<title>src_interfaces</title><style>.edge>path:hover{stroke-width:8}</style>
<ellipse fill="#ac4949" stroke="black" cx="124.29" cy="-90" rx="45.25" ry="18"/>
<text xml:space="preserve" text-anchor="middle" x="124.29" y="-86.5" font-family="Helvetica,sans-Serif" font-size="10.00" fill="#ffffff">src.interfaces</text>
</g>
<!-- src_chat_system&#45;&gt;src_interfaces -->
<g id="edge1" class="edge">
<title>src_chat_system&#45;&gt;src_interfaces</title><style>.edge>path:hover{stroke-width:8}</style>
<path fill="none" stroke="black" d="M198.56,-143.52C185.35,-134.17 168.96,-122.58 154.94,-112.67"/>
<polygon fill="blue" stroke="black" points="157.1,-109.92 146.92,-107 153.06,-115.63 157.1,-109.92"/>
</g>
<!-- src_main -->
<g id="node6" class="node">
<title>src_main</title><style>.edge>path:hover{stroke-width:8}</style>
<ellipse fill="#8b4b4b" stroke="black" cx="228.29" cy="-18" rx="32.17" ry="18"/>
<text xml:space="preserve" text-anchor="middle" x="228.29" y="-14.5" font-family="Helvetica,sans-Serif" font-size="10.00" fill="#ffffff">src.main</text>
</g>
<!-- src_chat_system&#45;&gt;src_main -->
<g id="edge2" class="edge">
<title>src_chat_system&#45;&gt;src_main</title><style>.edge>path:hover{stroke-width:8}</style>
<path fill="none" stroke="black" d="M315.29,-89C311.2,-62.88 286.77,-44.72 264.83,-33.45"/>
<polygon fill="blue" stroke="black" points="266.59,-30.41 256.06,-29.27 263.58,-36.73 266.59,-30.41"/>
<path fill="none" stroke="black" d="M259.67,-150.34C287.35,-139.79 319.97,-120.84 315.29,-91"/>
</g>
<!-- src_message_handler -->
<g id="node7" class="node">
<title>src_message_handler</title><style>.edge>path:hover{stroke-width:8}</style>
<polygon fill="blue" stroke="black" points="280.54,-108 188.04,-108 188.04,-72 280.54,-72 280.54,-108"/>
<text xml:space="preserve" text-anchor="middle" x="234.29" y="-92.5" font-family="Helvetica,sans-Serif" font-size="10.00" fill="white">src.</text>
<text xml:space="preserve" text-anchor="middle" x="234.29" y="-80.5" font-family="Helvetica,sans-Serif" font-size="10.00" fill="white">message_handler</text>
</g>
<!-- src_chat_system&#45;&gt;src_message_handler -->
<g id="edge3" class="edge">
<title>src_chat_system&#45;&gt;src_message_handler</title><style>.edge>path:hover{stroke-width:8}</style>
<path fill="none" stroke="black" d="M227.76,-132.53C228.46,-128.13 229.17,-123.58 229.86,-119.19"/>
<polygon fill="blue" stroke="black" points="224.34,-131.78 226.24,-142.2 231.25,-132.87 224.34,-131.78"/>
<polygon fill="blue" stroke="black" points="233.27,-120.02 231.37,-109.6 226.36,-118.93 233.27,-120.02"/>
</g>
<!-- src_clients -->
<g id="node2" class="node">
<title>src_clients</title><style>.edge>path:hover{stroke-width:8}</style>
<ellipse fill="#c24747" stroke="black" cx="217.29" cy="-234" rx="36.68" ry="18"/>
<text xml:space="preserve" text-anchor="middle" x="217.29" y="-230.5" font-family="Helvetica,sans-Serif" font-size="10.00" fill="#ffffff">src.clients</text>
</g>
<!-- src_clients&#45;&gt;src_chat_system -->
<g id="edge4" class="edge">
<title>src_clients&#45;&gt;src_chat_system</title><style>.edge>path:hover{stroke-width:8}</style>
<path fill="none" stroke="black" d="M218.77,-215.7C219.4,-208.41 220.14,-199.73 220.84,-191.54"/>
<polygon fill="#c24747" stroke="black" points="224.33,-191.87 221.69,-181.61 217.35,-191.28 224.33,-191.87"/>
</g>
<!-- src_clients&#45;&gt;src_main -->
<g id="edge5" class="edge">
<title>src_clients&#45;&gt;src_main</title><style>.edge>path:hover{stroke-width:8}</style>
<path fill="none" stroke="black" d="M315.29,-161C315.29,-129.89 320.11,-121.74 315.29,-91"/>
<path fill="none" stroke="black" d="M242.78,-220.76C271.82,-205.96 315.29,-180.82 315.29,-163"/>
</g>
<!-- src_database -->
<g id="node3" class="node">
<title>src_database</title><style>.edge>path:hover{stroke-width:8}</style>
<ellipse fill="#c24747" stroke="black" cx="315.29" cy="-234" rx="43.45" ry="18"/>
<text xml:space="preserve" text-anchor="middle" x="315.29" y="-230.5" font-family="Helvetica,sans-Serif" font-size="10.00" fill="#ffffff">src.database</text>
</g>
<!-- src_database&#45;&gt;src_chat_system -->
<g id="edge6" class="edge">
<title>src_database&#45;&gt;src_chat_system</title><style>.edge>path:hover{stroke-width:8}</style>
<path fill="none" stroke="black" d="M295.33,-217.81C283.56,-208.86 268.41,-197.33 255.04,-187.16"/>
<polygon fill="#c24747" stroke="black" points="257.41,-184.56 247.33,-181.29 253.17,-190.13 257.41,-184.56"/>
</g>
<!-- src_database&#45;&gt;src_main -->
<g id="edge7" class="edge">
<title>src_database&#45;&gt;src_main</title><style>.edge>path:hover{stroke-width:8}</style>
<path fill="none" stroke="black" d="M315.29,-215.74C315.29,-201.57 315.29,-180.99 315.29,-163"/>
</g>
<!-- src_engine -->
<g id="node4" class="node">
<title>src_engine</title><style>.edge>path:hover{stroke-width:8}</style>
<ellipse fill="#c24747" stroke="black" cx="413.29" cy="-234" rx="36.68" ry="18"/>
<text xml:space="preserve" text-anchor="middle" x="413.29" y="-230.5" font-family="Helvetica,sans-Serif" font-size="10.00" fill="#ffffff">src.engine</text>
</g>
<!-- src_engine&#45;&gt;src_chat_system -->
<g id="edge8" class="edge">
<title>src_engine&#45;&gt;src_chat_system</title><style>.edge>path:hover{stroke-width:8}</style>
<path fill="none" stroke="black" d="M384.58,-222.38C378.85,-220.27 372.88,-218.06 367.29,-216 334.96,-204.08 298.55,-190.68 270.42,-180.33"/>
<polygon fill="#c24747" stroke="black" points="271.71,-177.07 261.11,-176.91 269.29,-183.64 271.71,-177.07"/>
</g>
<!-- src_engine&#45;&gt;src_main -->
<g id="edge9" class="edge">
<title>src_engine&#45;&gt;src_main</title><style>.edge>path:hover{stroke-width:8}</style>
<path fill="none" stroke="black" d="M387.8,-220.76C358.76,-205.96 315.29,-180.82 315.29,-163"/>
</g>
<!-- src_interfaces&#45;&gt;src_main -->
<g id="edge10" class="edge">
<title>src_interfaces&#45;&gt;src_main</title><style>.edge>path:hover{stroke-width:8}</style>
<path fill="none" stroke="black" d="M146.6,-73.98C161.97,-63.64 182.54,-49.8 199.19,-38.59"/>
<polygon fill="#ac4949" stroke="black" points="200.88,-41.67 207.22,-33.18 196.97,-35.86 200.88,-41.67"/>
</g>
<!-- src_persona -->
<g id="node8" class="node">
<title>src_persona</title><style>.edge>path:hover{stroke-width:8}</style>
<ellipse fill="#ce3b3b" stroke="black" cx="40.29" cy="-234" rx="40.29" ry="18"/>
<text xml:space="preserve" text-anchor="middle" x="40.29" y="-230.5" font-family="Helvetica,sans-Serif" font-size="10.00" fill="#ffffff">src.persona</text>
</g>
<!-- src_persona&#45;&gt;src_chat_system -->
<g id="edge12" class="edge">
<title>src_persona&#45;&gt;src_chat_system</title><style>.edge>path:hover{stroke-width:8}</style>
<path fill="none" stroke="black" d="M70.1,-221.6C98.89,-210.59 142.92,-193.74 176.41,-180.93"/>
<polygon fill="#ce3b3b" stroke="black" points="177.37,-184.31 185.46,-177.47 174.87,-177.77 177.37,-184.31"/>
</g>
<!-- src_persona&#45;&gt;src_interfaces -->
<g id="edge13" class="edge">
<title>src_persona&#45;&gt;src_interfaces</title><style>.edge>path:hover{stroke-width:8}</style>
<path fill="none" stroke="black" d="M147.29,-161C157.78,-148.5 152.11,-131.08 143.77,-116.74"/>
<polygon fill="#ce3b3b" stroke="black" points="146.93,-115.18 138.56,-108.68 141.05,-118.98 146.93,-115.18"/>
<path fill="none" stroke="black" d="M68.18,-220.52C91.94,-208.67 125.6,-188.84 147.29,-163"/>
</g>
<!-- src_persona&#45;&gt;src_message_handler -->
<g id="edge14" class="edge">
<title>src_persona&#45;&gt;src_message_handler</title><style>.edge>path:hover{stroke-width:8}</style>
<path fill="none" stroke="black" d="M147.29,-161C162.01,-143.46 181.67,-127.2 198.58,-114.78"/>
<polygon fill="#ce3b3b" stroke="black" points="200.32,-117.84 206.41,-109.17 196.24,-112.15 200.32,-117.84"/>
</g>
<!-- src_tools -->
<g id="node9" class="node">
<title>src_tools</title><style>.edge>path:hover{stroke-width:8}</style>
<ellipse fill="#c04040" stroke="black" cx="130.29" cy="-234" rx="32.17" ry="18"/>
<text xml:space="preserve" text-anchor="middle" x="130.29" y="-230.5" font-family="Helvetica,sans-Serif" font-size="10.00" fill="#ffffff">src.tools</text>
</g>
<!-- src_tools&#45;&gt;src_chat_system -->
<g id="edge15" class="edge">
<title>src_tools&#45;&gt;src_chat_system</title><style>.edge>path:hover{stroke-width:8}</style>
<path fill="none" stroke="black" d="M148.66,-219.17C160.82,-210.02 177.09,-197.77 191.33,-187.05"/>
<polygon fill="#c04040" stroke="black" points="193.24,-190 199.13,-181.19 189.03,-184.4 193.24,-190"/>
</g>
</g>
</svg>
