<?xml version="1.0" encoding="UTF-8" standalone="no"?>
<!DOCTYPE svg PUBLIC "-//W3C//DTD SVG 1.1//EN"
 "http://www.w3.org/Graphics/SVG/1.1/DTD/svg11.dtd">
<!-- Generated by graphviz version 14.1.1 (20251213.1925)
 -->
<!-- Title: G Pages: 1 -->
<svg width="322pt" height="404pt"
 viewBox="0.00 0.00 322.00 404.00" xmlns="http://www.w3.org/2000/svg" xmlns:xlink="http://www.w3.org/1999/xlink">
<g id="graph0" class="graph" transform="scale(1 1) rotate(0) translate(4 400)">
<title>G</title><style>.edge>path:hover{stroke-width:8}</style>
<polygon fill="white" stroke="none" points="-4,4 -4,-400 318.1,-400 318.1,4 -4,4"/>
<!-- src_chat_system -->
<g id="node1" class="node">
<title>src_chat_system</title><style>.edge>path:hover{stroke-width:8}</style>
<polygon fill="blue" stroke="black" points="209.41,-180 137.16,-180 137.16,-144 209.41,-144 209.41,-180"/>
<text xml:space="preserve" text-anchor="middle" x="173.29" y="-164.5" font-family="Helvetica,sans-Serif" font-size="10.00" fill="white">src.</text>
<text xml:space="preserve" text-anchor="middle" x="173.29" y="-152.5" font-family="Helvetica,sans-Serif" font-size="10.00" fill="white">chat_system</text>
</g>
<!-- src_interfaces -->
<g id="node5" class="node">
<title>src_interfaces</title><style>.edge>path:hover{stroke-width:8}</style>
<ellipse fill="#ac4949" stroke="black" cx="71.29" cy="-90" rx="45.25" ry="18"/>
<text xml:space="preserve" text-anchor="middle" x="71.29" y="-86.5" font-family="Helvetica,sans-Serif" font-size="10.00" fill="#ffffff">src.interfaces</text>
</g>
<!-- src_chat_system&#45;&gt;src_interfaces -->
<g id="edge1" class="edge">
<title>src_chat_system&#45;&gt;src_interfaces</title><style>.edge>path:hover{stroke-width:8}</style>
<path fill="none" stroke="black" d="M147.81,-143.52C134.07,-134.08 116.99,-122.36 102.45,-112.39"/>
<polygon fill="blue" stroke="black" points="104.8,-109.75 94.58,-106.98 100.84,-115.53 104.8,-109.75"/>
</g>
<!-- src_main -->
<g id="node6" class="node">
<title>src_main</title><style>.edge>path:hover{stroke-width:8}</style>
<ellipse fill="#8b4b4b" stroke="black" cx="171.29" cy="-18" rx="32.17" ry="18"/>
<text xml:space="preserve" text-anchor="middle" x="171.29" y="-14.5" font-family="Helvetica,sans-Serif" font-size="10.00" fill="#ffffff">src.main</text>
</g>
<!-- src_chat_system&#45;&gt;src_main -->
<g id="edge2" class="edge">
<title>src_chat_system&#45;&gt;src_main</title><style>.edge>path:hover{stroke-width:8}</style>
<path fill="none" stroke="black" d="M209.73,-156.23C248.47,-149.01 303.28,-131.56 296.29,-91"/>
<path fill="none" stroke="black" d="M296.29,-89C289.88,-51.78 247.1,-34.09 213.35,-25.85"/>
<polygon fill="blue" stroke="black" points="214.31,-22.48 203.79,-23.73 212.8,-29.31 214.31,-22.48"/>
</g>
<!-- src_message_handler -->
<g id="node7" class="node">
<title>src_message_handler</title><style>.edge>path:hover{stroke-width:8}</style>
<polygon fill="blue" stroke="black" points="227.54,-108 135.04,-108 135.04,-72 227.54,-72 227.54,-108"/>
<text xml:space="preserve" text-anchor="middle" x="181.29" y="-92.5" font-family="Helvetica,sans-Serif" font-size="10.00" fill="white">src.</text>
<text xml:space="preserve" text-anchor="middle" x="181.29" y="-80.5" font-family="Helvetica,sans-Serif" font-size="10.00" fill="white">message_handler</text>
</g>
<!-- src_chat_system&#45;&gt;src_message_handler -->
<g id="edge3" class="edge">
<title>src_chat_system&#45;&gt;src_message_handler</title><style>.edge>path:hover{stroke-width:8}</style>
<path fill="none" stroke="black" d="M176.54,-132.53C177.05,-128.13 177.57,-123.58 178.07,-119.19"/>
<polygon fill="blue" stroke="black" points="173.1,-131.86 175.44,-142.19 180.05,-132.65 173.1,-131.86"/>
<polygon fill="blue" stroke="black" points="181.5,-119.94 179.16,-109.61 174.55,-119.15 181.5,-119.94"/>
</g>
<!-- src_clients -->
<g id="node2" class="node">
<title>src_clients</title><style>.edge>path:hover{stroke-width:8}</style>
<ellipse fill="#c43131" stroke="black" cx="264.29" cy="-234" rx="36.68" ry="18"/>
<text xml:space="preserve" text-anchor="middle" x="264.29" y="-230.5" font-family="Helvetica,sans-Serif" font-size="10.00" fill="#ffffff">src.clients</text>
</g>
<!-- src_clients&#45;&gt;src_chat_system -->
<g id="edge4" class="edge">
<title>src_clients&#45;&gt;src_chat_system</title><style>.edge>path:hover{stroke-width:8}</style>
<path fill="none" stroke="black" d="M245.43,-218.5C233.76,-209.52 218.47,-197.76 204.98,-187.37"/>
<polygon fill="#c43131" stroke="black" points="207.25,-184.7 197.18,-181.38 202.98,-190.25 207.25,-184.7"/>
</g>
<!-- src_clients&#45;&gt;src_main -->
<g id="edge5" class="edge">
<title>src_clients&#45;&gt;src_main</title><style>.edge>path:hover{stroke-width:8}</style>
<path fill="none" stroke="black" d="M273.89,-216.35C281.35,-202.53 291.26,-182.13 296.29,-163"/>
</g>
<!-- src_database -->
<g id="node3" class="node">
<title>src_database</title><style>.edge>path:hover{stroke-width:8}</style>
<ellipse fill="#ce3b3b" stroke="black" cx="168.29" cy="-378" rx="43.45" ry="18"/>
<text xml:space="preserve" text-anchor="middle" x="168.29" y="-374.5" font-family="Helvetica,sans-Serif" font-size="10.00" fill="#ffffff">src.database</text>
</g>
<!-- src_database&#45;&gt;src_chat_system -->
<g id="edge6" class="edge">
<title>src_database&#45;&gt;src_chat_system</title><style>.edge>path:hover{stroke-width:8}</style>
<path fill="none" stroke="black" d="M152.9,-361.09C144.13,-351.17 133.65,-337.72 127.29,-324 110.27,-287.31 101.46,-274.87 108.29,-235"/>
<path fill="none" stroke="black" d="M108.29,-233C110.82,-214.81 123.32,-199.26 136.7,-187.47"/>
<polygon fill="#ce3b3b" stroke="black" points="138.81,-190.26 144.35,-181.23 134.39,-184.84 138.81,-190.26"/>
</g>
<!-- src_database&#45;&gt;src_main -->
<g id="edge7" class="edge">
<title>src_database&#45;&gt;src_main</title><style>.edge>path:hover{stroke-width:8}</style>
<path fill="none" stroke="black" d="M194.54,-363.27C228.62,-343.78 286.55,-304.53 310.29,-252 316.88,-237.42 312.35,-231.87 310.29,-216 307.15,-191.84 290.1,-186.56 296.29,-163"/>
</g>
<!-- src_tools -->
<g id="node9" class="node">
<title>src_tools</title><style>.edge>path:hover{stroke-width:8}</style>
<ellipse fill="#c43131" stroke="black" cx="168.29" cy="-306" rx="32.17" ry="18"/>
<text xml:space="preserve" text-anchor="middle" x="168.29" y="-302.5" font-family="Helvetica,sans-Serif" font-size="10.00" fill="#ffffff">src.tools</text>
</g>
<!-- src_database&#45;&gt;src_tools -->
<g id="edge8" class="edge">
<title>src_database&#45;&gt;src_tools</title><style>.edge>path:hover{stroke-width:8}</style>
<path fill="none" stroke="black" d="M168.29,-359.7C168.29,-352.41 168.29,-343.73 168.29,-335.54"/>
<polygon fill="#ce3b3b" stroke="black" points="171.79,-335.62 168.29,-325.62 164.79,-335.62 171.79,-335.62"/>
</g>
<!-- src_engine -->
<g id="node4" class="node">
<title>src_engine</title><style>.edge>path:hover{stroke-width:8}</style>
<ellipse fill="#c24747" stroke="black" cx="173.29" cy="-234" rx="36.68" ry="18"/>
<text xml:space="preserve" text-anchor="middle" x="173.29" y="-230.5" font-family="Helvetica,sans-Serif" font-size="10.00" fill="#ffffff">src.engine</text>
</g>
<!-- src_engine&#45;&gt;src_chat_system -->
<g id="edge9" class="edge">
<title>src_engine&#45;&gt;src_chat_system</title><style>.edge>path:hover{stroke-width:8}</style>
<path fill="none" stroke="black" d="M173.29,-215.7C173.29,-208.41 173.29,-199.73 173.29,-191.54"/>
<polygon fill="#c24747" stroke="black" points="176.79,-191.62 173.29,-181.62 169.79,-191.62 176.79,-191.62"/>
</g>
<!-- src_engine&#45;&gt;src_main -->
<g id="edge10" class="edge">
<title>src_engine&#45;&gt;src_main</title><style>.edge>path:hover{stroke-width:8}</style>
<path fill="none" stroke="black" d="M296.29,-161C304.2,-130.91 301.57,-121.66 296.29,-91"/>
<path fill="none" stroke="black" d="M201.69,-222.3C236.3,-208.44 290.87,-183.61 296.29,-163"/>
</g>
<!-- src_interfaces&#45;&gt;src_main -->
<g id="edge11" class="edge">
<title>src_interfaces&#45;&gt;src_main</title><style>.edge>path:hover{stroke-width:8}</style>
<path fill="none" stroke="black" d="M92.99,-73.81C107.45,-63.69 126.62,-50.27 142.37,-39.24"/>
<polygon fill="#ac4949" stroke="black" points="144.24,-42.21 150.43,-33.6 140.23,-36.47 144.24,-42.21"/>
</g>
<!-- src_persona -->
<g id="node8" class="node">
<title>src_persona</title><style>.edge>path:hover{stroke-width:8}</style>
<ellipse fill="#ce3b3b" stroke="black" cx="40.29" cy="-234" rx="40.29" ry="18"/>
<text xml:space="preserve" text-anchor="middle" x="40.29" y="-230.5" font-family="Helvetica,sans-Serif" font-size="10.00" fill="#ffffff">src.persona</text>
</g>
<!-- src_persona&#45;&gt;src_chat_system -->
<g id="edge13" class="edge">
<title>src_persona&#45;&gt;src_chat_system</title><style>.edge>path:hover{stroke-width:8}</style>
<path fill="none" stroke="black" d="M65.62,-219.67C83.88,-210.06 108.98,-196.85 130.35,-185.6"/>
<polygon fill="#ce3b3b" stroke="black" points="131.94,-188.72 139.16,-180.97 128.68,-182.53 131.94,-188.72"/>
</g>
<!-- src_persona&#45;&gt;src_interfaces -->
<g id="edge14" class="edge">
<title>src_persona&#45;&gt;src_interfaces</title><style>.edge>path:hover{stroke-width:8}</style>
<path fill="none" stroke="black" d="M94.29,-161C102.19,-147.55 97.34,-131.03 90.11,-117.42"/>
<polygon fill="#ce3b3b" stroke="black" points="93.19,-115.76 85.05,-108.98 87.18,-119.36 93.19,-115.76"/>
<path fill="none" stroke="black" d="M54.64,-216.87C66.32,-203.2 82.71,-182.72 94.29,-163"/>
</g>
<!-- src_persona&#45;&gt;src_message_handler -->
<g id="edge15" class="edge">
<title>src_persona&#45;&gt;src_message_handler</title><style>.edge>path:hover{stroke-width:8}</style>
<path fill="none" stroke="black" d="M94.29,-161C105.39,-142.1 123.65,-126.24 140.59,-114.42"/>
<polygon fill="#ce3b3b" stroke="black" points="142.17,-117.57 148.55,-109.12 138.28,-111.75 142.17,-117.57"/>
</g>
<!-- src_tools&#45;&gt;src_chat_system -->
<g id="edge16" class="edge">
<title>src_tools&#45;&gt;src_chat_system</title><style>.edge>path:hover{stroke-width:8}</style>
<path fill="none" stroke="black" d="M146.05,-292.57C127.27,-280.22 104.07,-259.61 108.29,-235"/>
</g>
<!-- src_tools&#45;&gt;src_clients -->
<g id="edge17" class="edge">
<title>src_tools&#45;&gt;src_clients</title><style>.edge>path:hover{stroke-width:8}</style>
<path fill="none" stroke="black" d="M187.26,-291.17C200.92,-281.21 219.62,-267.57 235.17,-256.23"/>
<polygon fill="#c43131" stroke="black" points="237.13,-259.14 243.15,-250.42 233.01,-253.48 237.13,-259.14"/>
</g>
</g>
</svg>
